<?xml version="1.0" standalone="no"?>
<!DOCTYPE svg PUBLIC "-//W3C//DTD SVG 20010904//EN"
 "http://www.w3.org/TR/2001/REC-SVG-20010904/DTD/svg10.dtd">
<svg version="1.0" xmlns="http://www.w3.org/2000/svg"
 width="260.000000pt" height="260.000000pt" viewBox="0 0 260.000000 260.000000"
 preserveAspectRatio="xMidYMid meet">
<metadata>
Created by potrace 1.14, written by Peter Selinger 2001-2017
</metadata>
<g transform="translate(0.000000,260.000000) scale(0.100000,-0.100000)"
fill="#000000" stroke="none">
<path d="M1026 2261 c-27 -11 -62 -33 -79 -48 -35 -33 -77 -117 -77 -155 0
-32 -6 -34 -31 -12 -49 45 -183 58 -255 25 -116 -53 -172 -189 -128 -312 15
-42 14 -45 -6 -59 -59 -41 -91 -75 -112 -118 -22 -45 -23 -55 -23 -302 0 -298
10 -359 80 -498 92 -181 228 -303 417 -371 101 -37 153 -41 493 -41 381 0 413
4 560 74 155 74 270 188 345 341 68 138 74 183 75 490 0 258 -1 272 -22 311
-20 38 -78 96 -117 119 -16 9 -16 12 -1 49 19 45 21 138 5 181 -17 46 -57 93
-103 122 -33 21 -58 27 -117 31 -69 4 -80 1 -133 -27 -62 -33 -61 -33 -71 30
-4 20 -20 55 -36 77 -87 120 -228 145 -349 61 -43 -30 -43 -30 -65 -11 -63 58
-168 76 -250 43z"/>
</g>
</svg>
