<?xml version="1.0" standalone="no"?>
<!DOCTYPE svg PUBLIC "-//W3C//DTD SVG 20010904//EN"
 "http://www.w3.org/TR/2001/REC-SVG-20010904/DTD/svg10.dtd">
<svg version="1.0" xmlns="http://www.w3.org/2000/svg"
 width="150.000000pt" height="150.000000pt" viewBox="0 0 150.000000 150.000000"
 preserveAspectRatio="xMidYMid meet">
<metadata>
Created by potrace 1.14, written by Peter Selinger 2001-2017
</metadata>
<g transform="translate(0.000000,150.000000) scale(0.100000,-0.100000)"
fill="#000000" stroke="none">
<path d="M412 1107 l-352 -352 182 -182 c144 -144 180 -185 170 -195 -36 -36
15 -98 104 -123 52 -15 70 -28 154 -111 l95 -94 94 94 c77 78 103 97 146 110
28 9 67 30 86 45 31 26 33 31 23 57 -11 28 -7 33 172 214 l184 185 -353 353
-352 352 -353 -353z"/>
</g>
</svg>
